<?xml version="1.0" encoding="UTF-8"?>
<svg width="261px" height="54px" viewBox="0 0 261 54" version="1.1" xmlns="http://www.w3.org/2000/svg" xmlns:xlink="http://www.w3.org/1999/xlink">
    <title>spilberg logo</title>
    <g id="Homies" stroke="none" stroke-width="1" fill="none" fill-rule="evenodd">
        <g id="homepage-V02" transform="translate(-120.000000, -52.000000)" fill="#00C84B" fill-rule="nonzero">
            <g id="spilberg-logo" transform="translate(120.000000, 52.000000)">
                <path d="M64.3,31.4 C64.5,34.9 67.6,37.5 72.5,37.5 C76.6,37.5 79.5,35.7 79.5,33 C79.5,29.3 76.3,28.9 71.9,28.3 C65.4,27.5 60.1,26.3 60.1,20.1 C60.1,14.7 65.1,11.1 71.6,11.1 C78.3,11.2 83.1,14.4 83.6,20.5 L78.8,20.5 C78.5,17.5 75.6,15.1 71.6,15.1 C67.6,15.1 64.8,16.9 64.8,19.6 C64.8,22.9 67.9,23.2 72.1,23.7 C78.7,24.5 84.2,25.9 84.2,32.5 C84.2,38 79,41.5 72.4,41.5 C64.8,41.5 59.6,37.9 59.5,31.4 L64.3,31.4 Z" id="logoMark__x3C_CompoundPathItem_x3E__23_"></path>
                <path d="M118.9,26.3 C118.9,35.4 112.8,41.5 104.6,41.5 C99.6,41.5 96.2,39.5 94.4,36.6 L94.4,52.8 L89.6,52.8 L89.6,11.5 L93.7,11.5 L94.3,16.3 C96.3,13.6 99.5,11.2 104.5,11.2 C112.9,11.1 118.9,16.7 118.9,26.3 Z M114,26.3 C114,19.8 110,15.4 104.2,15.4 C98.4,15.4 94.4,19.9 94.4,26.2 C94.4,32.7 98.4,37.3 104.2,37.3 C110.1,37.3 114,32.8 114,26.3 Z" id="logoMark__x3C_CompoundPathItem_x3E__22_"></path>
                <path d="M129.9,3.1 C129.9,4.9 128.6,6.2 126.8,6.2 C125.1,6.2 123.7,4.9 123.7,3.1 C123.7,1.3 125,0 126.8,0 C128.5,0 129.9,1.3 129.9,3.1 Z M129.2,11.5 L129.2,41.2 L124.4,41.2 L124.4,11.5 L129.2,11.5 Z" id="logoMark__x3C_CompoundPathItem_x3E__21_"></path>
                <polygon id="logoMark__x3C_CompoundPathItem_x3E__20_" points="140.5 0.4 140.5 41.2 135.7 41.2 135.7 0.4"></polygon>
                <path d="M176.2,26.3 C176.2,35.4 170.1,41.5 161.9,41.5 C156.9,41.5 153.5,39.5 151.7,36.6 L151.1,41.1 L147,41.1 L147,0.4 L151.8,0.4 L151.8,16.2 C153.8,13.5 157,11.1 162,11.1 C170.2,11.1 176.2,16.7 176.2,26.3 Z M171.3,26.3 C171.3,19.8 167.3,15.4 161.5,15.4 C155.7,15.4 151.7,19.9 151.7,26.2 C151.7,32.7 155.7,37.3 161.5,37.3 C167.4,37.3 171.3,32.8 171.3,26.3 Z" id="logoMark__x3C_CompoundPathItem_x3E__19_"></path>
                <path d="M194.7,11.1 C202.9,11.1 208.6,16.4 208.8,25.2 C208.8,25.8 208.7,26.5 208.7,27.2 L185.6,27.2 L185.6,27.6 C185.8,33.4 189.4,37.2 195,37.2 C199.2,37.2 202.5,35 203.4,31.1 L208.2,31.1 C207,37 202.1,41.4 195.3,41.4 C186.4,41.4 180.6,35.3 180.6,26.2 C180.6,17.2 186.3,11.1 194.7,11.1 Z M203.9,23.3 C203.4,18.2 199.8,15.3 194.8,15.3 C190.4,15.3 186.4,18.4 185.9,23.3 L203.9,23.3 Z" id="logoMark__x3C_CompoundPathItem_x3E__18_"></path>
                <path d="M229.4,11.5 L229.4,16.2 L227,16.2 C220.8,16.2 219.1,21.4 219.1,26.1 L219.1,41.2 L214.3,41.2 L214.3,11.5 L218.4,11.5 L219,16 C220.4,13.7 222.7,11.5 228,11.5 L229.4,11.5 Z" id="logoMark__x3C_CompoundPathItem_x3E__17_"></path>
                <path d="M260.2,11.5 L260.2,39.7 C260.2,48.3 255.7,53.2 245.5,53.2 C237.9,53.2 232.6,49.6 231.9,43.1 L236.8,43.1 C237.6,46.8 240.9,48.9 245.9,48.9 C252.1,48.9 255.5,46 255.5,39.5 L255.5,36 C253.5,39.4 250.3,41.5 245.3,41.5 C237.1,41.5 231,36 231,26.3 C231,17.2 237.1,11.1 245.3,11.1 C250.3,11.1 253.6,13.3 255.5,16.6 L256.1,11.5 L260.2,11.5 Z M255.5,26.4 C255.5,19.9 251.5,15.3 245.7,15.3 C239.8,15.3 235.9,19.8 235.9,26.2 C235.9,32.6 239.9,37.1 245.7,37.1 C251.6,37.3 255.5,32.8 255.5,26.4 Z" id="logoMark__x3C_CompoundPathItem_x3E__16_"></path>
                <g id="icon-logo" transform="translate(0.000000, 0.400000)">
                    <polygon id="logoMark__x3C_PathItem_x3E__14_" points="46.3 0 41.3 0 21.4 19.6 21.4 18.9 21.4 0 20 0 20 20.4 20 21.1 16.4 24.5 16.4 0 15 0 15 26 11.5 29.5 11.5 0 10 0 10 30.9 6.5 34.4 6.5 0 5 0 5 35.8 1.5 39.3 1.5 0 0 0 0 40.8 1.5 40.8 1.5 40.8 5 40.8"></polygon>
                    <polygon id="logoMark__x3C_PathItem_x3E__13_" points="41.3 35 35.4 40.8 40.5 40.8 46.3 35"></polygon>
                    <polygon id="logoMark__x3C_PathItem_x3E__12_" points="41.3 26.2 26.6 40.8 31.6 40.8 46.3 26.2"></polygon>
                    <polygon id="logoMark__x3C_PathItem_x3E__11_" points="41.3 17.5 17.7 40.8 22.7 40.8 46.3 17.5"></polygon>
                    <polygon id="logoMark__x3C_PathItem_x3E__10_" points="41.3 8.7 8.9 40.8 13.9 40.8 46.3 8.7"></polygon>
                </g>
            </g>
        </g>
    </g>
</svg>